<svg xmlns="http://www.w3.org/2000/svg" xmlns:xlink="http://www.w3.org/1999/xlink" width="230.35" height="62.507" viewBox="0 0 230.35 62.507">
  <defs>
    <clipPath id="clip-path">
      <rect id="Rectangle_6263" data-name="Rectangle 6263" width="37.646" height="32.873" fill="#4f2d80"/>
    </clipPath>
    <clipPath id="clip-path-2">
      <rect id="Rectangle_6265" data-name="Rectangle 6265" width="180.393" height="56.093" fill="#848788"/>
    </clipPath>
  </defs>
  <g id="Group_11456" data-name="Group 11456" transform="translate(-26 -25.94)">
    <g id="Group_11453" data-name="Group 11453" transform="translate(26 25.94)">
      <g id="Group_11452" data-name="Group 11452" transform="translate(0 0)" clip-path="url(#clip-path)">
        <path id="Path_29600" data-name="Path 29600" d="M36.9,18.828a18.786,18.786,0,0,1-6.3,14.045A20.3,20.3,0,0,0,24.473,29,12.018,12.018,0,0,0,12.81,8.022V.751A18.823,18.823,0,0,1,36.9,18.828" transform="translate(0.748 0)" fill="#4f2d80"/>
        <path id="Path_29601" data-name="Path 29601" d="M12.436,28.761a20.3,20.3,0,0,0-6.128,3.874A18.81,18.81,0,0,1,6.816,4.09v14.5a12.015,12.015,0,0,0,5.62,10.171" transform="translate(0 0.239)" fill="#4f2d80"/>
        <path id="Path_29602" data-name="Path 29602" d="M23.351,18.081a5.271,5.271,0,0,1-5.271,5.271,5.359,5.359,0,0,1-5.271-5.328,5.271,5.271,0,0,1,10.541.057" transform="translate(0.748 0.747)" fill="#c793a0"/>
      </g>
    </g>
    <g id="Group_11455" data-name="Group 11455" transform="translate(75.956 32.354)">
      <g id="Group_11454" data-name="Group 11454" transform="translate(0 0)" clip-path="url(#clip-path-2)">
        <path id="Path_29603" data-name="Path 29603" d="M4.317.28V13.6a4.564,4.564,0,0,0,1.141,3.346A4.3,4.3,0,0,0,8.665,18.1,4.346,4.346,0,0,0,11.9,16.947,4.565,4.565,0,0,0,13.044,13.6V.28h4.348V13.571A8.578,8.578,0,0,1,16.2,18.212a7.527,7.527,0,0,1-3.176,2.852A10.076,10.076,0,0,1,8.6,22.02a9.807,9.807,0,0,1-4.363-.956,7.277,7.277,0,0,1-3.1-2.852A8.848,8.848,0,0,1,0,13.571V.28Z" transform="translate(0 0.029)" fill="#4f2d80"/>
        <path id="Path_29604" data-name="Path 29604" d="M34.773,12.584a5.319,5.319,0,0,1,1.172,3.392,5.467,5.467,0,0,1-.848,3.037,5.641,5.641,0,0,1-2.45,2.051,8.974,8.974,0,0,1-3.793.74H19.572V.28h8.88a9.225,9.225,0,0,1,3.779.709,5.4,5.4,0,0,1,2.405,1.974,5.174,5.174,0,0,1,.817,2.868,4.9,4.9,0,0,1-1,3.145,5.365,5.365,0,0,1-2.666,1.789,4.846,4.846,0,0,1,2.99,1.819M23.889,9.161h3.947a3.618,3.618,0,0,0,2.374-.694,2.442,2.442,0,0,0,.831-1.989,2.489,2.489,0,0,0-.831-2,3.566,3.566,0,0,0-2.374-.709H23.889Zm6.8,8.388a2.586,2.586,0,0,0,.878-2.1,2.7,2.7,0,0,0-.925-2.175,3.73,3.73,0,0,0-2.5-.786H23.889v5.8h4.347a3.7,3.7,0,0,0,2.453-.74" transform="translate(1.983 0.029)" fill="#4f2d80"/>
        <rect id="Rectangle_6264" data-name="Rectangle 6264" width="4.317" height="21.524" transform="translate(41.383 0.309)" fill="#4f2d80"/>
        <path id="Path_29605" data-name="Path 29605" d="M48.788,21.277a6.659,6.659,0,0,1-2.852-2.22,5.842,5.842,0,0,1-1.079-3.423h4.626a2.988,2.988,0,0,0,.941,2.1,3.329,3.329,0,0,0,2.328.77,3.581,3.581,0,0,0,2.374-.724,2.357,2.357,0,0,0,.863-1.9,2.195,2.195,0,0,0-.586-1.573,4.118,4.118,0,0,0-1.465-.971,24.368,24.368,0,0,0-2.421-.786,25.814,25.814,0,0,1-3.407-1.218,5.963,5.963,0,0,1-2.251-1.819,5.187,5.187,0,0,1-.941-3.253,5.813,5.813,0,0,1,.956-3.33A6.067,6.067,0,0,1,48.556.756,9.766,9.766,0,0,1,52.5,0a8.563,8.563,0,0,1,5.412,1.619,6,6,0,0,1,2.3,4.518H55.464A2.468,2.468,0,0,0,54.523,4.3,3.542,3.542,0,0,0,52.2,3.577a3,3,0,0,0-2.02.648,2.34,2.34,0,0,0-.756,1.881,1.94,1.94,0,0,0,.57,1.434,4.351,4.351,0,0,0,1.418.925,25.108,25.108,0,0,0,2.39.816,25.128,25.128,0,0,1,3.423,1.235,6.159,6.159,0,0,1,2.282,1.85,5.143,5.143,0,0,1,.956,3.238,6.092,6.092,0,0,1-.894,3.207,6.32,6.32,0,0,1-2.621,2.359,8.943,8.943,0,0,1-4.1.879,10.216,10.216,0,0,1-4.055-.771" transform="translate(4.545 0)" fill="#4f2d80"/>
        <path id="Path_29606" data-name="Path 29606" d="M66.948,20.631A10.588,10.588,0,0,1,62.939,16.7a11,11,0,0,1-1.48-5.689,10.934,10.934,0,0,1,1.48-5.657,10.6,10.6,0,0,1,4.009-3.933,11.6,11.6,0,0,1,11.117,0,10.523,10.523,0,0,1,3.978,3.933,11.031,11.031,0,0,1,1.465,5.657A11.094,11.094,0,0,1,82.043,16.7a10.486,10.486,0,0,1-3.993,3.933,11.569,11.569,0,0,1-11.1,0m8.974-3.315A6.027,6.027,0,0,0,78.234,14.8a8.249,8.249,0,0,0,.833-3.794,8.146,8.146,0,0,0-.833-3.776A5.932,5.932,0,0,0,75.922,4.75,6.665,6.665,0,0,0,72.5,3.887a6.747,6.747,0,0,0-3.438.863,5.9,5.9,0,0,0-2.328,2.482,8.146,8.146,0,0,0-.833,3.776,8.249,8.249,0,0,0,.833,3.794,6,6,0,0,0,2.328,2.513,6.669,6.669,0,0,0,3.438.879,6.587,6.587,0,0,0,3.423-.879" transform="translate(6.227 0)" fill="#4f2d80"/>
        <path id="Path_29607" data-name="Path 29607" d="M97.682.28V3.765H88.708v5.52h6.877v3.423H88.708v9.1H84.391V.28Z" transform="translate(8.55 0.029)" fill="#4f2d80"/>
        <path id="Path_29608" data-name="Path 29608" d="M113.983.28V3.765h-5.736V21.8H103.93V3.765H98.195V.28Z" transform="translate(9.949 0.029)" fill="#4f2d80"/>
        <path id="Path_29609" data-name="Path 29609" d="M125.479,21.277a6.659,6.659,0,0,1-2.852-2.22,5.841,5.841,0,0,1-1.079-3.423h4.626a2.988,2.988,0,0,0,.94,2.1,3.329,3.329,0,0,0,2.328.77,3.581,3.581,0,0,0,2.374-.724,2.357,2.357,0,0,0,.863-1.9,2.195,2.195,0,0,0-.586-1.573,4.118,4.118,0,0,0-1.465-.971,24.37,24.37,0,0,0-2.421-.786,25.813,25.813,0,0,1-3.407-1.218,5.963,5.963,0,0,1-2.251-1.819,5.187,5.187,0,0,1-.941-3.253,5.813,5.813,0,0,1,.956-3.33A6.067,6.067,0,0,1,125.247.756,9.766,9.766,0,0,1,129.195,0a8.563,8.563,0,0,1,5.412,1.619,6,6,0,0,1,2.3,4.518h-4.749a2.468,2.468,0,0,0-.941-1.835,3.542,3.542,0,0,0-2.328-.725,3,3,0,0,0-2.02.648,2.34,2.34,0,0,0-.756,1.881,1.94,1.94,0,0,0,.57,1.434,4.35,4.35,0,0,0,1.419.925,25.107,25.107,0,0,0,2.39.816,25.128,25.128,0,0,1,3.423,1.235,6.159,6.159,0,0,1,2.282,1.85,5.143,5.143,0,0,1,.956,3.238,6.092,6.092,0,0,1-.894,3.207,6.32,6.32,0,0,1-2.621,2.359,8.943,8.943,0,0,1-4.1.879,10.216,10.216,0,0,1-4.055-.771" transform="translate(12.315 0)" fill="#4f2d80"/>
        <path id="Path_29610" data-name="Path 29610" d="M139.158,19.761a2.531,2.531,0,0,1,0-3.608,2.67,2.67,0,0,1,1.927-.726,2.578,2.578,0,0,1,1.881.726,2.569,2.569,0,0,1,0,3.608,2.582,2.582,0,0,1-1.881.725,2.674,2.674,0,0,1-1.927-.725" transform="translate(14.022 1.563)" fill="#4f2d80"/>
        <path id="Path_29611" data-name="Path 29611" d="M159.7,17.707H151.13l-1.418,4.1h-4.533L152.918.252h5.026l7.74,21.555h-4.564Zm-1.172-3.455-3.115-9-3.115,9Z" transform="translate(14.709 0.026)" fill="#4f2d80"/>
        <path id="Path_29612" data-name="Path 29612" d="M4.309,37.459a2.626,2.626,0,0,1-1.09-.885A2.322,2.322,0,0,1,2.8,35.3h.978a1.855,1.855,0,0,0,.595,1.183A2.145,2.145,0,0,0,5.915,37,2.171,2.171,0,0,0,7.4,36.515a1.559,1.559,0,0,0,.548-1.224,1.444,1.444,0,0,0-.3-.958,1.861,1.861,0,0,0-.753-.542,11.685,11.685,0,0,0-1.242-.39,10.862,10.862,0,0,1-1.467-.489,2.325,2.325,0,0,1-.925-.74,2.191,2.191,0,0,1-.383-1.361,2.266,2.266,0,0,1,.37-1.275,2.479,2.479,0,0,1,1.044-.879,3.592,3.592,0,0,1,1.546-.317,3.217,3.217,0,0,1,2.068.628,2.359,2.359,0,0,1,.905,1.619h-1a1.661,1.661,0,0,0-.621-1.011,2.153,2.153,0,0,0-1.427-.443,2.155,2.155,0,0,0-1.388.443,1.465,1.465,0,0,0-.555,1.209,1.4,1.4,0,0,0,.3.938,1.938,1.938,0,0,0,.76.542,11.223,11.223,0,0,0,1.236.4,11.014,11.014,0,0,1,1.454.494,2.368,2.368,0,0,1,.938.747,2.168,2.168,0,0,1,.383,1.348,2.379,2.379,0,0,1-.344,1.229,2.508,2.508,0,0,1-1.018.938,3.4,3.4,0,0,1-1.612.357,3.826,3.826,0,0,1-1.606-.317" transform="translate(0.283 2.872)" fill="#6a6d6e"/>
        <path id="Path_29613" data-name="Path 29613" d="M10.53,28.964a.667.667,0,0,1-.2-.49.64.64,0,0,1,.2-.481.684.684,0,0,1,.952,0,.64.64,0,0,1,.2.481.667.667,0,0,1-.2.49.67.67,0,0,1-.952,0m.938,8.775h-.925V30.524h.925Z" transform="translate(1.047 2.817)" fill="#6a6d6e"/>
        <path id="Path_29614" data-name="Path 29614" d="M14.343,37.028a2.1,2.1,0,0,1-.879-1.566h.952a1.365,1.365,0,0,0,.575.985,2.249,2.249,0,0,0,1.368.376,1.8,1.8,0,0,0,1.183-.356,1.108,1.108,0,0,0,.43-.885.822.822,0,0,0-.238-.608,1.687,1.687,0,0,0-.6-.377,9.625,9.625,0,0,0-.985-.3,9.865,9.865,0,0,1-1.308-.422,2.231,2.231,0,0,1-.852-.629,1.807,1.807,0,0,1-.033-2.094,2.164,2.164,0,0,1,.9-.714,3.143,3.143,0,0,1,1.322-.265,2.857,2.857,0,0,1,1.877.589,2.136,2.136,0,0,1,.767,1.619h-.925a1.4,1.4,0,0,0-.5-1.024,1.86,1.86,0,0,0-1.249-.39,1.832,1.832,0,0,0-1.137.33.994.994,0,0,0-.436.819.966.966,0,0,0,.258.694,1.771,1.771,0,0,0,.641.423c.256.1.6.214,1.031.336a10.1,10.1,0,0,1,1.242.41,2.17,2.17,0,0,1,.793.583,1.556,1.556,0,0,1,.344,1.018,1.773,1.773,0,0,1-.317,1.037,2.166,2.166,0,0,1-.885.72,3.087,3.087,0,0,1-1.308.263,3.352,3.352,0,0,1-2.029-.574" transform="translate(1.364 3.058)" fill="#6a6d6e"/>
        <path id="Path_29615" data-name="Path 29615" d="M21.814,31.219V35.7a1.284,1.284,0,0,0,.251.913,1.237,1.237,0,0,0,.885.251H23.8v.793H22.8a2.033,2.033,0,0,1-1.454-.456,2.011,2.011,0,0,1-.476-1.5V31.219h-1v-.78h1V28.628h.938V30.44H23.8v.78Z" transform="translate(2.013 2.901)" fill="#6a6d6e"/>
        <path id="Path_29616" data-name="Path 29616" d="M31.933,34.247H25.946a2.9,2.9,0,0,0,.4,1.4,2.334,2.334,0,0,0,.938.879,2.745,2.745,0,0,0,1.269.3,2.547,2.547,0,0,0,1.513-.435,2.051,2.051,0,0,0,.813-1.176h.978a3.056,3.056,0,0,1-1.13,1.725,3.455,3.455,0,0,1-2.174.666,3.628,3.628,0,0,1-1.824-.456,3.217,3.217,0,0,1-1.262-1.294,4.05,4.05,0,0,1-.456-1.964,4.143,4.143,0,0,1,.449-1.969,3.127,3.127,0,0,1,1.256-1.294,3.709,3.709,0,0,1,1.837-.45,3.526,3.526,0,0,1,1.8.45,3.105,3.105,0,0,1,1.189,1.209,3.448,3.448,0,0,1,.416,1.684q0,.477-.026.728M30.7,32.119a2.185,2.185,0,0,0-.918-.859,2.8,2.8,0,0,0-1.269-.291,2.52,2.52,0,0,0-1.758.661,2.639,2.639,0,0,0-.806,1.863h5.075a2.564,2.564,0,0,0-.324-1.374" transform="translate(2.534 3.058)" fill="#6a6d6e"/>
        <path id="Path_29617" data-name="Path 29617" d="M44.091,30.952a3.143,3.143,0,0,1,.8,2.319V37.5h-.912V33.377a2.573,2.573,0,0,0-.568-1.8,1.992,1.992,0,0,0-1.546-.621,2.082,2.082,0,0,0-1.626.674,2.828,2.828,0,0,0-.608,1.957V37.5h-.912V33.377a2.573,2.573,0,0,0-.568-1.8,2.008,2.008,0,0,0-1.559-.621,2.082,2.082,0,0,0-1.626.674,2.828,2.828,0,0,0-.608,1.957V37.5h-.925V30.285h.925v1.241a2.362,2.362,0,0,1,.978-1.023,2.877,2.877,0,0,1,1.414-.351,2.993,2.993,0,0,1,1.645.45,2.526,2.526,0,0,1,1.024,1.32,2.439,2.439,0,0,1,1-1.315,2.9,2.9,0,0,1,1.606-.456,2.8,2.8,0,0,1,2.068.8" transform="translate(3.387 3.055)" fill="#6a6d6e"/>
        <path id="Path_29618" data-name="Path 29618" d="M46.331,31.927a3.171,3.171,0,0,1,1.229-1.3,3.478,3.478,0,0,1,1.778-.456,3.237,3.237,0,0,1,1.778.476,2.769,2.769,0,0,1,1.077,1.216V30.282h.925V37.5h-.925V35.9a2.9,2.9,0,0,1-1.09,1.222,3.2,3.2,0,0,1-1.778.482,3.414,3.414,0,0,1-1.764-.463,3.205,3.205,0,0,1-1.229-1.308,4.527,4.527,0,0,1,0-3.905m5.5.43a2.546,2.546,0,0,0-.971-1.018,2.649,2.649,0,0,0-1.355-.357,2.744,2.744,0,0,0-1.374.344,2.436,2.436,0,0,0-.958,1,3.246,3.246,0,0,0-.35,1.553,3.3,3.3,0,0,0,.35,1.553,2.461,2.461,0,0,0,.958,1.018,2.7,2.7,0,0,0,1.374.35,2.649,2.649,0,0,0,1.355-.357,2.539,2.539,0,0,0,.971-1.018,3.472,3.472,0,0,0,0-3.066" transform="translate(4.649 3.058)" fill="#6a6d6e"/>
        <path id="Path_29619" data-name="Path 29619" d="M58.876,32.153a3.215,3.215,0,0,1,1.236-1.3A3.478,3.478,0,0,1,61.89,30.4a3.26,3.26,0,0,1,1.718.463,2.83,2.83,0,0,1,1.123,1.2V27.944h.925v9.78h-.925V36.111a2.781,2.781,0,0,1-1.084,1.236,3.212,3.212,0,0,1-1.771.482,3.44,3.44,0,0,1-1.778-.463,3.205,3.205,0,0,1-1.229-1.308,4.154,4.154,0,0,1-.443-1.956,4.068,4.068,0,0,1,.449-1.949m5.5.43a2.546,2.546,0,0,0-.971-1.018,2.649,2.649,0,0,0-1.355-.357,2.744,2.744,0,0,0-1.374.344,2.436,2.436,0,0,0-.958,1,3.246,3.246,0,0,0-.35,1.553,3.3,3.3,0,0,0,.35,1.553,2.461,2.461,0,0,0,.958,1.018,2.7,2.7,0,0,0,1.374.35,2.649,2.649,0,0,0,1.355-.357,2.539,2.539,0,0,0,.971-1.018,3.472,3.472,0,0,0,0-3.066" transform="translate(5.92 2.832)" fill="#6a6d6e"/>
        <path id="Path_29620" data-name="Path 29620" d="M74.028,34.247H68.041a2.9,2.9,0,0,0,.4,1.4,2.334,2.334,0,0,0,.938.879,2.745,2.745,0,0,0,1.269.3,2.547,2.547,0,0,0,1.513-.435,2.051,2.051,0,0,0,.813-1.176h.978a3.056,3.056,0,0,1-1.13,1.725,3.455,3.455,0,0,1-2.174.666,3.628,3.628,0,0,1-1.824-.456,3.217,3.217,0,0,1-1.262-1.294,4.05,4.05,0,0,1-.456-1.964,4.142,4.142,0,0,1,.449-1.969,3.127,3.127,0,0,1,1.256-1.294,3.709,3.709,0,0,1,1.837-.45,3.526,3.526,0,0,1,1.8.45,3.105,3.105,0,0,1,1.189,1.209,3.448,3.448,0,0,1,.416,1.684q0,.477-.026.728m-1.236-2.128a2.185,2.185,0,0,0-.918-.859,2.8,2.8,0,0,0-1.269-.291,2.52,2.52,0,0,0-1.758.661,2.639,2.639,0,0,0-.806,1.863h5.075a2.564,2.564,0,0,0-.324-1.374" transform="translate(6.799 3.058)" fill="#6a6d6e"/>
        <path id="Path_29621" data-name="Path 29621" d="M86.7,31.142a3.165,3.165,0,0,0-1.209-1.434,3.465,3.465,0,0,0-1.91-.521,3.616,3.616,0,0,0-1.85.475,3.394,3.394,0,0,0-1.3,1.356,4.219,4.219,0,0,0-.476,2.041,4.269,4.269,0,0,0,.476,2.05,3.388,3.388,0,0,0,1.3,1.361,3.836,3.836,0,0,0,3.588.059,3.227,3.227,0,0,0,1.242-1.189,3.9,3.9,0,0,0,.535-1.8H83.21v-.754h4.863v.675a4.678,4.678,0,0,1-.661,2.2,4.35,4.35,0,0,1-1.593,1.553,4.445,4.445,0,0,1-2.24.567,4.575,4.575,0,0,1-2.326-.6,4.346,4.346,0,0,1-1.645-1.68,5.244,5.244,0,0,1,0-4.877,4.336,4.336,0,0,1,1.645-1.678,4.851,4.851,0,0,1,4.916.14,4.187,4.187,0,0,1,1.612,2.061Z" transform="translate(8.005 2.872)" fill="#6a6d6e"/>
        <path id="Path_29622" data-name="Path 29622" d="M95.892,34.247H89.905a2.9,2.9,0,0,0,.4,1.4,2.334,2.334,0,0,0,.938.879,2.745,2.745,0,0,0,1.269.3,2.547,2.547,0,0,0,1.513-.435,2.051,2.051,0,0,0,.813-1.176h.978a3.056,3.056,0,0,1-1.13,1.725,3.455,3.455,0,0,1-2.174.666,3.628,3.628,0,0,1-1.824-.456,3.217,3.217,0,0,1-1.262-1.294,4.05,4.05,0,0,1-.456-1.964,4.143,4.143,0,0,1,.449-1.969,3.127,3.127,0,0,1,1.256-1.294,3.709,3.709,0,0,1,1.837-.45,3.526,3.526,0,0,1,1.8.45A3.105,3.105,0,0,1,95.5,31.835a3.448,3.448,0,0,1,.416,1.684q0,.477-.026.728m-1.236-2.128a2.185,2.185,0,0,0-.918-.859,2.8,2.8,0,0,0-1.269-.291,2.52,2.52,0,0,0-1.758.661,2.639,2.639,0,0,0-.806,1.863H94.98a2.564,2.564,0,0,0-.324-1.374" transform="translate(9.014 3.058)" fill="#6a6d6e"/>
        <path id="Path_29623" data-name="Path 29623" d="M97.886,37.028a2.1,2.1,0,0,1-.879-1.566h.952a1.365,1.365,0,0,0,.575.985,2.249,2.249,0,0,0,1.368.376,1.8,1.8,0,0,0,1.183-.356,1.108,1.108,0,0,0,.43-.885.822.822,0,0,0-.238-.608,1.688,1.688,0,0,0-.6-.377,9.624,9.624,0,0,0-.985-.3,9.866,9.866,0,0,1-1.308-.422,2.231,2.231,0,0,1-.852-.629,1.807,1.807,0,0,1-.033-2.094,2.164,2.164,0,0,1,.9-.714,3.143,3.143,0,0,1,1.322-.265,2.857,2.857,0,0,1,1.877.589,2.136,2.136,0,0,1,.767,1.619h-.925a1.4,1.4,0,0,0-.5-1.024,1.86,1.86,0,0,0-1.249-.39,1.832,1.832,0,0,0-1.137.33.994.994,0,0,0-.436.819.966.966,0,0,0,.258.694,1.77,1.77,0,0,0,.641.423c.256.1.6.214,1.031.336a10.1,10.1,0,0,1,1.242.41,2.17,2.17,0,0,1,.793.583,1.556,1.556,0,0,1,.344,1.018,1.773,1.773,0,0,1-.317,1.037,2.166,2.166,0,0,1-.885.72,3.087,3.087,0,0,1-1.308.263,3.352,3.352,0,0,1-2.029-.574" transform="translate(9.828 3.058)" fill="#6a6d6e"/>
        <path id="Path_29624" data-name="Path 29624" d="M105.357,31.219V35.7a1.284,1.284,0,0,0,.251.913,1.237,1.237,0,0,0,.885.251h.846v.793h-.991a2.033,2.033,0,0,1-1.454-.456,2.011,2.011,0,0,1-.476-1.5V31.219h-1v-.78h1V28.628h.938V30.44h1.982v.78Z" transform="translate(10.478 2.901)" fill="#6a6d6e"/>
        <path id="Path_29625" data-name="Path 29625" d="M108.94,28.964a.667.667,0,0,1-.2-.49.64.64,0,0,1,.2-.481.684.684,0,0,1,.952,0,.64.64,0,0,1,.2.481.667.667,0,0,1-.2.49.67.67,0,0,1-.952,0m.938,8.775h-.925V30.524h.925Z" transform="translate(11.017 2.817)" fill="#6a6d6e"/>
        <path id="Path_29626" data-name="Path 29626" d="M113.625,37.416a3.3,3.3,0,0,1-1.282-1.3,3.956,3.956,0,0,1-.469-1.963,3.912,3.912,0,0,1,.476-1.963,3.328,3.328,0,0,1,1.3-1.3,3.942,3.942,0,0,1,3.681,0,3.271,3.271,0,0,1,1.3,1.3,4.3,4.3,0,0,1-.007,3.918,3.291,3.291,0,0,1-1.308,1.3,3.788,3.788,0,0,1-1.85.456,3.676,3.676,0,0,1-1.83-.456m3.152-.674a2.471,2.471,0,0,0,.985-.978,3.172,3.172,0,0,0,.377-1.606,3.218,3.218,0,0,0-.37-1.606,2.429,2.429,0,0,0-.978-.978,2.859,2.859,0,0,0-2.643,0,2.388,2.388,0,0,0-.971.978,3.729,3.729,0,0,0,0,3.211,2.4,2.4,0,0,0,.965.978,2.717,2.717,0,0,0,1.315.324,2.755,2.755,0,0,0,1.322-.324m-.053-8.385-2.709,1.573v-.714l2.709-1.692Z" transform="translate(11.335 2.789)" fill="#6a6d6e"/>
        <path id="Path_29627" data-name="Path 29627" d="M126.036,30.952a3.1,3.1,0,0,1,.819,2.319V37.5h-.912V33.377a2.517,2.517,0,0,0-.588-1.8,2.105,2.105,0,0,0-1.606-.621,2.177,2.177,0,0,0-1.665.661,2.741,2.741,0,0,0-.621,1.943V37.5h-.925V30.285h.925v1.229a2.355,2.355,0,0,1,.991-1.011,3.031,3.031,0,0,1,1.467-.351,2.9,2.9,0,0,1,2.115.8" transform="translate(12.212 3.055)" fill="#6a6d6e"/>
        <path id="Path_29628" data-name="Path 29628" d="M132.639,32.153a3.215,3.215,0,0,1,1.236-1.3,3.478,3.478,0,0,1,1.778-.456,3.26,3.26,0,0,1,1.718.463,2.83,2.83,0,0,1,1.123,1.2V27.944h.925v9.78h-.925V36.111a2.78,2.78,0,0,1-1.084,1.236,3.212,3.212,0,0,1-1.771.482,3.44,3.44,0,0,1-1.778-.463,3.205,3.205,0,0,1-1.229-1.308,4.154,4.154,0,0,1-.443-1.956,4.068,4.068,0,0,1,.449-1.949m5.5.43a2.546,2.546,0,0,0-.971-1.018,2.649,2.649,0,0,0-1.355-.357,2.744,2.744,0,0,0-1.374.344,2.436,2.436,0,0,0-.958,1,3.245,3.245,0,0,0-.35,1.553,3.3,3.3,0,0,0,.35,1.553,2.461,2.461,0,0,0,.958,1.018,2.7,2.7,0,0,0,1.374.35,2.649,2.649,0,0,0,1.355-.357,2.539,2.539,0,0,0,.971-1.018,3.472,3.472,0,0,0,0-3.066" transform="translate(13.393 2.832)" fill="#6a6d6e"/>
        <path id="Path_29629" data-name="Path 29629" d="M147.791,34.247H141.8a2.9,2.9,0,0,0,.4,1.4,2.334,2.334,0,0,0,.938.879,2.745,2.745,0,0,0,1.269.3,2.547,2.547,0,0,0,1.513-.435,2.051,2.051,0,0,0,.813-1.176h.978a3.056,3.056,0,0,1-1.13,1.725,3.455,3.455,0,0,1-2.174.666,3.628,3.628,0,0,1-1.824-.456,3.217,3.217,0,0,1-1.262-1.294,4.05,4.05,0,0,1-.456-1.964,4.142,4.142,0,0,1,.449-1.969,3.127,3.127,0,0,1,1.255-1.294,3.709,3.709,0,0,1,1.837-.45,3.526,3.526,0,0,1,1.8.45,3.105,3.105,0,0,1,1.189,1.209,3.448,3.448,0,0,1,.416,1.684q0,.477-.026.728m-1.236-2.128a2.185,2.185,0,0,0-.918-.859,2.8,2.8,0,0,0-1.269-.291,2.52,2.52,0,0,0-1.758.661,2.639,2.639,0,0,0-.806,1.863h5.075a2.563,2.563,0,0,0-.324-1.374" transform="translate(14.272 3.058)" fill="#6a6d6e"/>
        <path id="Path_29630" data-name="Path 29630" d="M8,51.674,5.714,47.816h-1.7v3.858H3.084V42.437H5.859a3.333,3.333,0,0,1,2.346.74A2.522,2.522,0,0,1,9,45.119,2.624,2.624,0,0,1,8.43,46.83a2.741,2.741,0,0,1-1.7.918L9.11,51.674ZM4.009,47.061H5.873A2.266,2.266,0,0,0,7.5,46.534a1.877,1.877,0,0,0,.548-1.415,1.839,1.839,0,0,0-.529-1.407,2.374,2.374,0,0,0-1.665-.494H4.009Z" transform="translate(0.312 4.3)" fill="#6a6d6e"/>
        <path id="Path_29631" data-name="Path 29631" d="M17.245,48.247H11.258a2.9,2.9,0,0,0,.4,1.4,2.334,2.334,0,0,0,.938.879,2.745,2.745,0,0,0,1.269.3,2.547,2.547,0,0,0,1.513-.435,2.051,2.051,0,0,0,.813-1.176h.978a3.056,3.056,0,0,1-1.13,1.725,3.455,3.455,0,0,1-2.174.666,3.628,3.628,0,0,1-1.824-.456,3.217,3.217,0,0,1-1.262-1.294,4.05,4.05,0,0,1-.456-1.964,4.143,4.143,0,0,1,.449-1.969,3.127,3.127,0,0,1,1.256-1.294,3.709,3.709,0,0,1,1.837-.45,3.526,3.526,0,0,1,1.8.45,3.105,3.105,0,0,1,1.189,1.209,3.448,3.448,0,0,1,.416,1.684q0,.477-.026.728m-1.236-2.128a2.185,2.185,0,0,0-.918-.859,2.8,2.8,0,0,0-1.269-.291,2.52,2.52,0,0,0-1.758.661,2.639,2.639,0,0,0-.806,1.863h5.075a2.564,2.564,0,0,0-.324-1.374" transform="translate(1.046 4.476)" fill="#6a6d6e"/>
        <path id="Path_29632" data-name="Path 29632" d="M18.809,45.928a3.2,3.2,0,0,1,1.242-1.3,3.577,3.577,0,0,1,1.811-.456,3.517,3.517,0,0,1,2.2.662,2.992,2.992,0,0,1,1.117,1.8h-.991a2.035,2.035,0,0,0-.8-1.224,2.55,2.55,0,0,0-1.526-.442,2.59,2.59,0,0,0-1.308.33,2.32,2.32,0,0,0-.918.983A3.483,3.483,0,0,0,19.3,47.89a3.523,3.523,0,0,0,.337,1.613,2.316,2.316,0,0,0,.918.991,2.6,2.6,0,0,0,1.308.329,2.543,2.543,0,0,0,1.526-.442,2.041,2.041,0,0,0,.8-1.236h.991a3.027,3.027,0,0,1-1.123,1.784,3.488,3.488,0,0,1-2.194.673,3.555,3.555,0,0,1-1.811-.456,3.194,3.194,0,0,1-1.242-1.3,4.508,4.508,0,0,1,0-3.924" transform="translate(1.86 4.476)" fill="#6a6d6e"/>
        <path id="Path_29633" data-name="Path 29633" d="M32.933,44.272v7.216h-.925v-1.27a2.215,2.215,0,0,1-.978,1.032,3.065,3.065,0,0,1-1.48.357,2.9,2.9,0,0,1-2.115-.8,3.1,3.1,0,0,1-.819-2.319V44.272h.912v4.109a2.513,2.513,0,0,0,.588,1.8,2.1,2.1,0,0,0,1.606.622,2.177,2.177,0,0,0,1.665-.661,2.739,2.739,0,0,0,.621-1.944V44.272Z" transform="translate(2.697 4.486)" fill="#6a6d6e"/>
        <path id="Path_29634" data-name="Path 29634" d="M36.7,44.522a2.985,2.985,0,0,1,1.54-.37v.965h-.251a2.029,2.029,0,0,0-2.22,2.352V51.5h-.925V44.284h.925v1.282a2.261,2.261,0,0,1,.932-1.044" transform="translate(3.531 4.474)" fill="#6a6d6e"/>
        <path id="Path_29635" data-name="Path 29635" d="M40.263,51.028a2.1,2.1,0,0,1-.879-1.566h.952a1.365,1.365,0,0,0,.575.985,2.249,2.249,0,0,0,1.368.376,1.8,1.8,0,0,0,1.183-.356,1.108,1.108,0,0,0,.43-.885.822.822,0,0,0-.238-.608,1.687,1.687,0,0,0-.6-.377,9.624,9.624,0,0,0-.985-.3,9.865,9.865,0,0,1-1.308-.422,2.232,2.232,0,0,1-.852-.629,1.807,1.807,0,0,1-.033-2.094,2.164,2.164,0,0,1,.9-.714,3.143,3.143,0,0,1,1.322-.265,2.857,2.857,0,0,1,1.877.589,2.136,2.136,0,0,1,.767,1.619h-.925a1.4,1.4,0,0,0-.5-1.024,1.86,1.86,0,0,0-1.249-.39,1.832,1.832,0,0,0-1.137.33.994.994,0,0,0-.436.819.966.966,0,0,0,.258.694,1.771,1.771,0,0,0,.641.423c.256.1.6.214,1.031.336a10.1,10.1,0,0,1,1.242.41,2.17,2.17,0,0,1,.793.583,1.556,1.556,0,0,1,.344,1.018,1.773,1.773,0,0,1-.317,1.037,2.166,2.166,0,0,1-.885.72,3.087,3.087,0,0,1-1.308.263,3.352,3.352,0,0,1-2.029-.574" transform="translate(3.99 4.476)" fill="#6a6d6e"/>
        <path id="Path_29636" data-name="Path 29636" d="M47.83,51.147a3.293,3.293,0,0,1-1.282-1.294,3.958,3.958,0,0,1-.469-1.964,3.911,3.911,0,0,1,.476-1.961,3.33,3.33,0,0,1,1.3-1.3,3.942,3.942,0,0,1,3.681,0,3.273,3.273,0,0,1,1.3,1.3,4.3,4.3,0,0,1-.007,3.918,3.289,3.289,0,0,1-1.308,1.3,3.776,3.776,0,0,1-1.85.456,3.665,3.665,0,0,1-1.83-.456m3.152-.673a2.467,2.467,0,0,0,.985-.979,3.169,3.169,0,0,0,.377-1.606,3.224,3.224,0,0,0-.37-1.606A2.433,2.433,0,0,0,51,45.307a2.859,2.859,0,0,0-2.643,0,2.392,2.392,0,0,0-.971.977,3.729,3.729,0,0,0,0,3.211,2.4,2.4,0,0,0,.965.979,2.729,2.729,0,0,0,1.315.324,2.768,2.768,0,0,0,1.322-.324" transform="translate(4.669 4.476)" fill="#6a6d6e"/>
        <path id="Path_29637" data-name="Path 29637" d="M55.239,51.028a2.1,2.1,0,0,1-.879-1.566h.952a1.365,1.365,0,0,0,.575.985,2.249,2.249,0,0,0,1.368.376,1.8,1.8,0,0,0,1.183-.356,1.108,1.108,0,0,0,.43-.885.822.822,0,0,0-.238-.608,1.687,1.687,0,0,0-.6-.377,9.624,9.624,0,0,0-.985-.3,9.865,9.865,0,0,1-1.308-.422,2.232,2.232,0,0,1-.852-.629,1.807,1.807,0,0,1-.033-2.094,2.164,2.164,0,0,1,.9-.714,3.143,3.143,0,0,1,1.322-.265,2.857,2.857,0,0,1,1.877.589,2.136,2.136,0,0,1,.767,1.619h-.925a1.4,1.4,0,0,0-.5-1.024,1.86,1.86,0,0,0-1.249-.39,1.832,1.832,0,0,0-1.137.33.994.994,0,0,0-.436.819.966.966,0,0,0,.258.694,1.771,1.771,0,0,0,.641.423c.256.1.6.214,1.031.336a10.1,10.1,0,0,1,1.242.41,2.17,2.17,0,0,1,.793.583,1.556,1.556,0,0,1,.344,1.018,1.773,1.773,0,0,1-.317,1.037,2.166,2.166,0,0,1-.885.72,3.087,3.087,0,0,1-1.308.263,3.352,3.352,0,0,1-2.029-.574" transform="translate(5.508 4.476)" fill="#6a6d6e"/>
        <path id="Path_29638" data-name="Path 29638" d="M72.162,42.437v9.238h-.925V47.353H66.228v4.322H65.3V42.437h.925v4.15h5.009v-4.15Z" transform="translate(6.616 4.3)" fill="#6a6d6e"/>
        <path id="Path_29639" data-name="Path 29639" d="M80.285,44.272v7.216H79.36v-1.27a2.215,2.215,0,0,1-.978,1.032,3.065,3.065,0,0,1-1.48.357,2.9,2.9,0,0,1-2.115-.8,3.1,3.1,0,0,1-.819-2.319V44.272h.912v4.109a2.513,2.513,0,0,0,.588,1.8,2.1,2.1,0,0,0,1.606.622,2.177,2.177,0,0,0,1.665-.661A2.739,2.739,0,0,0,79.36,48.2V44.272Z" transform="translate(7.494 4.486)" fill="#6a6d6e"/>
        <path id="Path_29640" data-name="Path 29640" d="M92.858,44.952a3.143,3.143,0,0,1,.8,2.319V51.5h-.912V47.377a2.573,2.573,0,0,0-.568-1.8,1.992,1.992,0,0,0-1.546-.621,2.082,2.082,0,0,0-1.626.674,2.828,2.828,0,0,0-.608,1.957V51.5h-.912V47.377a2.573,2.573,0,0,0-.568-1.8,2.008,2.008,0,0,0-1.559-.621,2.082,2.082,0,0,0-1.626.674,2.828,2.828,0,0,0-.608,1.957V51.5H82.2V44.285h.925v1.241A2.362,2.362,0,0,1,84.1,44.5a2.877,2.877,0,0,1,1.414-.351,2.993,2.993,0,0,1,1.645.45,2.526,2.526,0,0,1,1.024,1.32,2.439,2.439,0,0,1,1-1.315,2.9,2.9,0,0,1,1.606-.456,2.8,2.8,0,0,1,2.068.8" transform="translate(8.328 4.474)" fill="#6a6d6e"/>
        <path id="Path_29641" data-name="Path 29641" d="M95.1,45.927a3.17,3.17,0,0,1,1.229-1.3,3.478,3.478,0,0,1,1.778-.456,3.237,3.237,0,0,1,1.778.476,2.769,2.769,0,0,1,1.077,1.216V44.282h.925V51.5h-.925V49.9a2.9,2.9,0,0,1-1.09,1.222,3.2,3.2,0,0,1-1.778.482,3.414,3.414,0,0,1-1.764-.463A3.205,3.205,0,0,1,95.1,49.832a4.527,4.527,0,0,1,0-3.905m5.5.43a2.546,2.546,0,0,0-.971-1.018,2.649,2.649,0,0,0-1.355-.357,2.744,2.744,0,0,0-1.374.344,2.436,2.436,0,0,0-.958,1,3.246,3.246,0,0,0-.35,1.553,3.3,3.3,0,0,0,.35,1.553,2.461,2.461,0,0,0,.958,1.018,2.7,2.7,0,0,0,1.374.35,2.649,2.649,0,0,0,1.355-.357,2.539,2.539,0,0,0,.971-1.018,3.472,3.472,0,0,0,0-3.066" transform="translate(9.59 4.476)" fill="#6a6d6e"/>
        <path id="Path_29642" data-name="Path 29642" d="M109.213,44.952a3.1,3.1,0,0,1,.819,2.319V51.5h-.912V47.377a2.517,2.517,0,0,0-.588-1.8,2.105,2.105,0,0,0-1.606-.621,2.177,2.177,0,0,0-1.665.661,2.741,2.741,0,0,0-.621,1.943V51.5h-.925V44.285h.925v1.229a2.355,2.355,0,0,1,.991-1.011,3.031,3.031,0,0,1,1.467-.351,2.9,2.9,0,0,1,2.115.8" transform="translate(10.508 4.474)" fill="#6a6d6e"/>
        <path id="Path_29643" data-name="Path 29643" d="M113.254,51.147a3.292,3.292,0,0,1-1.282-1.294,3.957,3.957,0,0,1-.469-1.964,3.911,3.911,0,0,1,.476-1.961,3.331,3.331,0,0,1,1.3-1.3,3.725,3.725,0,0,1,1.837-.456,3.762,3.762,0,0,1,1.844.456,3.273,3.273,0,0,1,1.3,1.3,4.3,4.3,0,0,1-.007,3.918,3.288,3.288,0,0,1-1.308,1.3,3.776,3.776,0,0,1-1.85.456,3.664,3.664,0,0,1-1.83-.456m3.152-.673a2.467,2.467,0,0,0,.985-.979,3.169,3.169,0,0,0,.377-1.606,3.224,3.224,0,0,0-.37-1.606,2.433,2.433,0,0,0-.978-.977,2.859,2.859,0,0,0-2.643,0,2.392,2.392,0,0,0-.971.977,3.729,3.729,0,0,0,0,3.211,2.4,2.4,0,0,0,.965.979,2.729,2.729,0,0,0,1.315.324,2.768,2.768,0,0,0,1.322-.324" transform="translate(11.297 4.476)" fill="#6a6d6e"/>
        <path id="Path_29644" data-name="Path 29644" d="M120.662,51.028a2.1,2.1,0,0,1-.879-1.566h.952a1.365,1.365,0,0,0,.575.985,2.249,2.249,0,0,0,1.368.376,1.8,1.8,0,0,0,1.183-.356,1.108,1.108,0,0,0,.43-.885.821.821,0,0,0-.238-.608,1.687,1.687,0,0,0-.6-.377,9.622,9.622,0,0,0-.985-.3,9.864,9.864,0,0,1-1.308-.422,2.231,2.231,0,0,1-.852-.629,1.807,1.807,0,0,1-.033-2.094,2.164,2.164,0,0,1,.9-.714,3.143,3.143,0,0,1,1.322-.265,2.857,2.857,0,0,1,1.877.589,2.136,2.136,0,0,1,.767,1.619h-.925a1.4,1.4,0,0,0-.5-1.024,1.86,1.86,0,0,0-1.249-.39,1.832,1.832,0,0,0-1.137.33.994.994,0,0,0-.436.819.966.966,0,0,0,.258.694,1.771,1.771,0,0,0,.641.423c.256.1.6.214,1.031.336a10.1,10.1,0,0,1,1.242.41,2.17,2.17,0,0,1,.793.583,1.556,1.556,0,0,1,.344,1.018,1.773,1.773,0,0,1-.317,1.037,2.166,2.166,0,0,1-.885.72,3.087,3.087,0,0,1-1.308.263,3.352,3.352,0,0,1-2.029-.574" transform="translate(12.136 4.476)" fill="#6a6d6e"/>
      </g>
    </g>
  </g>
</svg>
