<svg xmlns="http://www.w3.org/2000/svg" width="25.782" height="22.681" viewBox="0 0 25.782 22.681">
  <g id="Group_13362" data-name="Group 13362" transform="translate(1357 -2766.212)">
    <g id="Iconly_Bold_Activity" data-name="Iconly/Bold/Activity" transform="translate(-1357 2768.809)">
      <g id="Activity" transform="translate(0)">
        <path id="Activity-2" data-name="Activity" d="M14.1,20.084H5.954a6.024,6.024,0,0,1-4.383-1.575A6.028,6.028,0,0,1,0,14.131V5.974A6.061,6.061,0,0,1,1.571,1.582,6.011,6.011,0,0,1,5.954,0h8.873c-.044.274-.066.822-.066.826a4.485,4.485,0,0,0,4.475,4.485,5.194,5.194,0,0,0,.815-.075v8.894a6.028,6.028,0,0,1-1.571,4.379A6.022,6.022,0,0,1,14.1,20.084Zm-3.626-7.822c-3.338,0-4.961.736-4.961,2.25s1.623,2.265,4.961,2.265,4.961-.736,4.961-2.25S13.811,12.262,10.473,12.262Zm0-8.714a3.4,3.4,0,0,0-3.283,3.5,3.4,3.4,0,0,0,3.283,3.5,3.4,3.4,0,0,0,3.283-3.5A3.4,3.4,0,0,0,10.473,3.549Z" transform="translate(0)" fill="#553089"/>
      </g>
    </g>
    <path id="Fill_4" data-name="Fill 4" d="M3.291,0A3.291,3.291,0,1,0,6.582,3.291,3.293,3.293,0,0,0,3.291,0" transform="translate(-1340.901 2766.212)" fill="#553089"/>
    <path id="Path_33905" d="M3.39,1.87,1.357.229a.785.785,0,0,0-1.108,0,.863.863,0,0,0,0,1.213h0L1.936,3.376a1.045,1.045,0,0,0,1.489,0,1.073,1.073,0,0,0,0-1.506Z" transform="translate(-1334.953 2771.554)" fill="#553089"/>
  </g>
</svg>
