<svg xmlns="http://www.w3.org/2000/svg" width="20.054" height="22.283" viewBox="0 0 20.054 22.283">
  <path id="ic_assignment_24px" d="M20.826,3.228H16.169a3.329,3.329,0,0,0-6.284,0H5.228A2.235,2.235,0,0,0,3,5.457v15.6a2.235,2.235,0,0,0,2.228,2.228h15.6a2.235,2.235,0,0,0,2.228-2.228V5.457A2.235,2.235,0,0,0,20.826,3.228Zm-7.8,0a1.114,1.114,0,1,1-1.114,1.114A1.117,1.117,0,0,1,13.027,3.228Zm2.228,15.6h-7.8V16.6h7.8ZM18.6,14.37H7.457V12.141H18.6Zm0-4.457H7.457V7.685H18.6Z" transform="translate(-3 -1)" fill="#4f2d80"/>
</svg>
